ffmpeg started on 2025-06-27 at 10:06:31
Report written to "D:\Convert\FFMetrics\reports\psnr_report-6.txt"
Log level: 32
Command line:
ffmpeg -hide_banner -nostdin -i "G:\\\xc0\xed\xe8\xec\xe5\\[\xd2\xee\xef-4]\\\xd2\xee\xea\xe8\xe9\xf1\xea\xe8\xe9 \xc3\xf3\xeb\xfc\\\xd2\xc2-4\\Tokyo_Ghoul_Re_[03]_[AniLibria_TV]_[HDTVRip_720p]_HEVC.mkv" -i "G:\\\xc0\xed\xe8\xec\xe5\\[\xd2\xee\xef-4]\\\xd2\xee\xea\xe8\xe9\xf1\xea\xe8\xe9 \xc3\xf3\xeb\xfc\\\xd2\xc2-4\\Tokyo_Ghoul_Re_[03]_[AniLibria_TV]_[HDTVRip_720p].mkv" -lavfi "[0:v]settb=AVTB,setpts=PTS-STARTPTS,format=pix_fmts=yuv420p10,fps=24000/1001,scale=1280:720:flags=bicubic[main];[1:v]settb=AVTB,setpts=PTS-STARTPTS,format=pix_fmts=yuv420p,fps=24000/1001,scale=1280:720:flags=bicubic[ref];[main][ref]psnr=eof_action=endall:stats_file='D\\:/Convert/FFMetrics/logs/psnr_logfile-6.txt'" -f null -
Input #0, matroska,webm, from 'G:\Аниме\[Топ-4]\Токийский Гуль\ТВ-4\Tokyo_Ghoul_Re_[03]_[AniLibria_TV]_[HDTVRip_720p]_HEVC.mkv':
  Metadata:
    ENCODER         : Lavf61.7.100
  Duration: 00:24:30.21, start: -0.021000, bitrate: 710 kb/s
  Stream #0:0(jpn): Video: hevc (Main 10), yuv420p10le(tv, bt709, progressive), 1280x720 [SAR 1:1 DAR 16:9], 23.98 fps, 23.98 tbr, 1k tbn (default)
      Metadata:
        ENCODER         : Lavc61.19.100 libx265
        BPS             : 511947
        DURATION        : 00:24:30.093708333
        NUMBER_OF_FRAMES: 35247
        NUMBER_OF_BYTES : 94076326
        _STATISTICS_WRITING_APP: mkvpropedit v66.0.0 ('Josie') 64-bit
        _STATISTICS_WRITING_DATE_UTC: 2025-06-26 13:28:22
        _STATISTICS_TAGS: BPS DURATION NUMBER_OF_FRAMES NUMBER_OF_BYTES
  Stream #0:1(rus): Audio: aac (LC), 48000 Hz, stereo, fltp (default) (forced)
      Metadata:
        title           : Lupin, Silv, December & MyAska
        ENCODER         : Lavc61.19.100 aac
        BPS             : 193946
        DURATION        : 00:24:30.186000000
        NUMBER_OF_FRAMES: 68916
        NUMBER_OF_BYTES : 35642250
        _STATISTICS_WRITING_APP: mkvpropedit v66.0.0 ('Josie') 64-bit
        _STATISTICS_WRITING_DATE_UTC: 2025-06-26 13:28:22
        _STATISTICS_TAGS: BPS DURATION NUMBER_OF_FRAMES NUMBER_OF_BYTES
  Stream #0:2(rus): Subtitle: ass (ssa) (default) (forced)
      Metadata:
        title           : Надписи
        BPS             : 23
        DURATION        : 00:23:15.360000000
        NUMBER_OF_FRAMES: 28
        NUMBER_OF_BYTES : 4053
        _STATISTICS_WRITING_APP: mkvpropedit v66.0.0 ('Josie') 64-bit
        _STATISTICS_WRITING_DATE_UTC: 2025-06-26 13:28:22
        _STATISTICS_TAGS: BPS DURATION NUMBER_OF_FRAMES NUMBER_OF_BYTES
  Stream #0:3(rus): Subtitle: ass (ssa)
      Metadata:
        title           : Субтитры
        BPS             : 145
        DURATION        : 00:24:18.100000000
        NUMBER_OF_FRAMES: 327
        NUMBER_OF_BYTES : 26429
        _STATISTICS_WRITING_APP: mkvpropedit v66.0.0 ('Josie') 64-bit
        _STATISTICS_WRITING_DATE_UTC: 2025-06-26 13:28:22
        _STATISTICS_TAGS: BPS DURATION NUMBER_OF_FRAMES NUMBER_OF_BYTES
Input #1, matroska,webm, from 'G:\Аниме\[Топ-4]\Токийский Гуль\ТВ-4\Tokyo_Ghoul_Re_[03]_[AniLibria_TV]_[HDTVRip_720p].mkv':
  Metadata:
    encoder         : libebml v1.4.2 + libmatroska v1.6.4
    creation_time   : 2024-12-27T09:44:29.000000Z
  Duration: 00:24:30.19, start: 0.000000, bitrate: 2120 kb/s
  Stream #1:0(jpn): Video: h264 (Main), yuv420p(tv, bt709, progressive), 1280x720, SAR 1:1 DAR 16:9, 23.98 fps, 23.98 tbr, 1k tbn (default)
      Metadata:
        BPS             : 1921262
        DURATION        : 00:24:30.094000000
        NUMBER_OF_FRAMES: 35247
        NUMBER_OF_BYTES : 353054503
        _STATISTICS_WRITING_APP: mkvmerge v66.0.0 ('Josie') 64-bit
        _STATISTICS_WRITING_DATE_UTC: 2024-12-27 09:44:29
        _STATISTICS_TAGS: BPS DURATION NUMBER_OF_FRAMES NUMBER_OF_BYTES
  Stream #1:1(rus): Audio: aac (LC), 48000 Hz, stereo, fltp (default) (forced)
      Metadata:
        title           : Lupin, Silv, December & MyAska
        BPS             : 192091
        DURATION        : 00:24:30.187000000
        NUMBER_OF_FRAMES: 68915
        NUMBER_OF_BYTES : 35301245
        _STATISTICS_WRITING_APP: mkvmerge v66.0.0 ('Josie') 64-bit
        _STATISTICS_WRITING_DATE_UTC: 2024-12-27 09:44:29
        _STATISTICS_TAGS: BPS DURATION NUMBER_OF_FRAMES NUMBER_OF_BYTES
  Stream #1:2(rus): Subtitle: ass (ssa) (default) (forced)
      Metadata:
        title           : Надписи
        BPS             : 23
        DURATION        : 00:23:15.360000000
        NUMBER_OF_FRAMES: 28
        NUMBER_OF_BYTES : 4053
        _STATISTICS_WRITING_APP: mkvmerge v66.0.0 ('Josie') 64-bit
        _STATISTICS_WRITING_DATE_UTC: 2024-12-27 09:44:29
        _STATISTICS_TAGS: BPS DURATION NUMBER_OF_FRAMES NUMBER_OF_BYTES
  Stream #1:3(rus): Subtitle: ass (ssa)
      Metadata:
        title           : Субтитры
        BPS             : 145
        DURATION        : 00:24:18.100000000
        NUMBER_OF_FRAMES: 327
        NUMBER_OF_BYTES : 26429
        _STATISTICS_WRITING_APP: mkvmerge v66.0.0 ('Josie') 64-bit
        _STATISTICS_WRITING_DATE_UTC: 2024-12-27 09:44:29
        _STATISTICS_TAGS: BPS DURATION NUMBER_OF_FRAMES NUMBER_OF_BYTES
  Stream #1:4: Attachment: ttf
      Metadata:
        filename        : REDOCTOB.otf
        mimetype        : application/x-truetype-font
  Stream #1:5: Attachment: ttf
      Metadata:
        filename        : Snowstorm.ttf
        mimetype        : application/x-truetype-font
  Stream #1:6: Attachment: ttf
      Metadata:
        filename        : TEMPSITC.TTF
        mimetype        : application/x-truetype-font
  Stream #1:7: Attachment: otf
      Metadata:
        filename        : TrajanPro3-Bold.otf
        mimetype        : application/vnd.ms-opentype
  Stream #1:8: Attachment: otf
      Metadata:
        filename        : TrajanPro3-Regular.otf
        mimetype        : application/vnd.ms-opentype
  Stream #1:9: Attachment: ttf
      Metadata:
        filename        : XENI.TTF
        mimetype        : application/x-truetype-font
  Stream #1:10: Attachment: ttf
      Metadata:
        filename        : Aero Matics Display Bold Italic.ttf
        mimetype        : application/x-truetype-font
  Stream #1:11: Attachment: ttf
      Metadata:
        filename        : Aero Matics Display Bold.ttf
        mimetype        : application/x-truetype-font
  Stream #1:12: Attachment: ttf
      Metadata:
        filename        : Aero Matics Display Italic.ttf
        mimetype        : application/x-truetype-font
  Stream #1:13: Attachment: ttf
      Metadata:
        filename        : Aero Matics Display Light Italic.ttf
        mimetype        : application/x-truetype-font
  Stream #1:14: Attachment: ttf
      Metadata:
        filename        : Aero Matics Display Light.ttf
        mimetype        : application/x-truetype-font
  Stream #1:15: Attachment: ttf
      Metadata:
        filename        : Aero_Matics_Display_Regular.ttf
        mimetype        : application/x-truetype-font
  Stream #1:16: Attachment: ttf
      Metadata:
        filename        : OpenSanA.ttf
        mimetype        : application/x-truetype-font
Stream mapping:
  Stream #0:0 (hevc) -> settb:default
  Stream #1:0 (h264) -> settb:default
  psnr:default -> Stream #0:0 (wrapped_avframe)
  Stream #0:1 -> #0:1 (aac (native) -> pcm_s16le (native))
Output #0, null, to 'pipe:':
  Metadata:
    encoder         : Lavf61.7.100
  Stream #0:0: Video: wrapped_avframe, yuv420p10le(tv, bt709, progressive), 1280x720 [SAR 1:1 DAR 16:9], q=2-31, 200 kb/s, 23.98 fps, 23.98 tbn
      Metadata:
        encoder         : Lavc61.19.100 wrapped_avframe
  Stream #0:1(rus): Audio: pcm_s16le, 48000 Hz, stereo, s16, 1536 kb/s (default) (forced)
      Metadata:
        title           : Lupin, Silv, December & MyAska
        _STATISTICS_TAGS: BPS DURATION NUMBER_OF_FRAMES NUMBER_OF_BYTES
        BPS             : 193946
        DURATION        : 00:24:30.186000000
        NUMBER_OF_FRAMES: 68916
        NUMBER_OF_BYTES : 35642250
        _STATISTICS_WRITING_APP: mkvpropedit v66.0.0 ('Josie') 64-bit
        _STATISTICS_WRITING_DATE_UTC: 2025-06-26 13:28:22
        encoder         : Lavc61.19.100 pcm_s16le
frame=  532 fps=0.0 q=-0.0 size=N/A time=00:00:22.18 bitrate=N/A speed=42.4x    frame= 1079 fps=1039 q=-0.0 size=N/A time=00:00:45.00 bitrate=N/A speed=43.4x    frame= 1449 fps=934 q=-0.0 size=N/A time=00:01:00.43 bitrate=N/A speed=38.9x    frame= 1771 fps=854 q=-0.0 size=N/A time=00:01:13.86 bitrate=N/A speed=35.6x    frame= 2132 fps=823 q=-0.0 size=N/A time=00:01:28.92 bitrate=N/A speed=34.3x    frame= 2423 fps=780 q=-0.0 size=N/A time=00:01:41.05 bitrate=N/A speed=32.5x    frame= 2743 fps=755 q=-0.0 size=N/A time=00:01:54.40 bitrate=N/A speed=31.5x    frame= 3063 fps=738 q=-0.0 size=N/A time=00:02:07.75 bitrate=N/A speed=30.8x    frame= 3290 fps=706 q=-0.0 size=N/A time=00:02:17.22 bitrate=N/A speed=29.4x    frame= 3836 fps=741 q=-0.0 size=N/A time=00:02:39.99 bitrate=N/A speed=30.9x    frame= 4311 fps=758 q=-0.0 size=N/A time=00:02:59.80 bitrate=N/A speed=31.6x    frame= 4808 fps=774 q=-0.0 size=N/A time=00:03:20.53 bitrate=N/A speed=32.3x    frame= 5231 fps=777 q=-0.0 size=N/A time=00:03:38.17 bitrate=N/A speed=32.4x    frame= 5626 fps=777 q=-0.0 size=N/A time=00:03:54.65 bitrate=N/A speed=32.4x    frame= 6094 fps=786 q=-0.0 size=N/A time=00:04:14.17 bitrate=N/A speed=32.8x    frame= 6622 fps=801 q=-0.0 size=N/A time=00:04:36.19 bitrate=N/A speed=33.4x    frame= 7020 fps=799 q=-0.0 size=N/A time=00:04:52.79 bitrate=N/A speed=33.3x    frame= 7510 fps=807 q=-0.0 size=N/A time=00:05:13.22 bitrate=N/A speed=33.7x    frame= 7978 fps=813 q=-0.0 size=N/A time=00:05:32.74 bitrate=N/A speed=33.9x    frame= 8379 fps=811 q=-0.0 size=N/A time=00:05:49.47 bitrate=N/A speed=33.8x    frame= 8952 fps=826 q=-0.0 size=N/A time=00:06:13.37 bitrate=N/A speed=34.4x    frame= 9501 fps=836 q=-0.0 size=N/A time=00:06:36.27 bitrate=N/A speed=34.9x    frame=10036 fps=845 q=-0.0 size=N/A time=00:06:58.58 bitrate=N/A speed=35.3x    frame=10623 fps=857 q=-0.0 size=N/A time=00:07:23.06 bitrate=N/A speed=35.8x    frame=11211 fps=868 q=-0.0 size=N/A time=00:07:47.59 bitrate=N/A speed=36.2x    frame=11727 fps=873 q=-0.0 size=N/A time=00:08:09.11 bitrate=N/A speed=36.4x    frame=12213 fps=876 q=-0.0 size=N/A time=00:08:29.38 bitrate=N/A speed=36.5x    frame=12737 fps=881 q=-0.0 size=N/A time=00:08:51.23 bitrate=N/A speed=36.7x    frame=13263 fps=886 q=-0.0 size=N/A time=00:09:13.17 bitrate=N/A speed=36.9x    frame=13784 fps=890 q=-0.0 size=N/A time=00:09:34.90 bitrate=N/A speed=37.1x    frame=14265 fps=892 q=-0.0 size=N/A time=00:09:54.96 bitrate=N/A speed=37.2x    frame=14806 fps=896 q=-0.0 size=N/A time=00:10:17.53 bitrate=N/A speed=37.4x    frame=15286 fps=897 q=-0.0 size=N/A time=00:10:37.55 bitrate=N/A speed=37.4x    frame=15750 fps=897 q=-0.0 size=N/A time=00:10:56.90 bitrate=N/A speed=37.4x    frame=16271 fps=900 q=-0.0 size=N/A time=00:11:18.63 bitrate=N/A speed=37.5x    frame=16805 fps=904 q=-0.0 size=N/A time=00:11:40.90 bitrate=N/A speed=37.7x    frame=17344 fps=907 q=-0.0 size=N/A time=00:12:03.38 bitrate=N/A speed=37.8x    frame=17898 fps=911 q=-0.0 size=N/A time=00:12:26.49 bitrate=N/A speed=  38x    frame=18414 fps=913 q=-0.0 size=N/A time=00:12:48.01 bitrate=N/A speed=38.1x    frame=18958 fps=917 q=-0.0 size=N/A time=00:13:10.70 bitrate=N/A speed=38.2x    frame=19470 fps=919 q=-0.0 size=N/A time=00:13:32.06 bitrate=N/A speed=38.3x    frame=19931 fps=918 q=-0.0 size=N/A time=00:13:51.28 bitrate=N/A speed=38.3x    frame=20394 fps=918 q=-0.0 size=N/A time=00:14:10.59 bitrate=N/A speed=38.3x    frame=20785 fps=914 q=-0.0 size=N/A time=00:14:26.90 bitrate=N/A speed=38.1x    frame=21154 fps=910 q=-0.0 size=N/A time=00:14:42.29 bitrate=N/A speed=37.9x    frame=21542 fps=906 q=-0.0 size=N/A time=00:14:58.48 bitrate=N/A speed=37.8x    frame=21920 fps=903 q=-0.0 size=N/A time=00:15:14.24 bitrate=N/A speed=37.6x    frame=22352 fps=901 q=-0.0 size=N/A time=00:15:32.26 bitrate=N/A speed=37.6x    frame=22717 fps=897 q=-0.0 size=N/A time=00:15:47.48 bitrate=N/A speed=37.4x    frame=23077 fps=893 q=-0.0 size=N/A time=00:16:02.50 bitrate=N/A speed=37.3x    frame=23443 fps=890 q=-0.0 size=N/A time=00:16:17.76 bitrate=N/A speed=37.1x    frame=23858 fps=888 q=-0.0 size=N/A time=00:16:35.07 bitrate=N/A speed=37.1x    frame=24289 fps=887 q=-0.0 size=N/A time=00:16:53.05 bitrate=N/A speed=  37x    frame=24678 fps=885 q=-0.0 size=N/A time=00:17:09.27 bitrate=N/A speed=36.9x    frame=25079 fps=883 q=-0.0 size=N/A time=00:17:26.00 bitrate=N/A speed=36.8x    frame=25494 fps=881 q=-0.0 size=N/A time=00:17:43.31 bitrate=N/A speed=36.8x    frame=25951 fps=881 q=-0.0 size=N/A time=00:18:02.37 bitrate=N/A speed=36.8x    frame=26522 fps=885 q=-0.0 size=N/A time=00:18:26.18 bitrate=N/A speed=36.9x    frame=27025 fps=887 q=-0.0 size=N/A time=00:18:47.16 bitrate=N/A speed=  37x    frame=27543 fps=889 q=-0.0 size=N/A time=00:19:08.77 bitrate=N/A speed=37.1x    frame=28067 fps=891 q=-0.0 size=N/A time=00:19:30.62 bitrate=N/A speed=37.2x    frame=28588 fps=893 q=-0.0 size=N/A time=00:19:52.35 bitrate=N/A speed=37.2x    frame=29013 fps=892 q=-0.0 size=N/A time=00:20:10.08 bitrate=N/A speed=37.2x    frame=29594 fps=895 q=-0.0 size=N/A time=00:20:34.31 bitrate=N/A speed=37.3x    frame=30116 fps=897 q=-0.0 size=N/A time=00:20:56.08 bitrate=N/A speed=37.4x    frame=30472 fps=894 q=-0.0 size=N/A time=00:21:10.93 bitrate=N/A speed=37.3x    frame=30922 fps=894 q=-0.0 size=N/A time=00:21:29.70 bitrate=N/A speed=37.3x    frame=31411 fps=895 q=-0.0 size=N/A time=00:21:50.10 bitrate=N/A speed=37.3x    frame=31891 fps=895 q=-0.0 size=N/A time=00:22:10.12 bitrate=N/A speed=37.3x    frame=32392 fps=896 q=-0.0 size=N/A time=00:22:31.01 bitrate=N/A speed=37.4x    frame=32718 fps=893 q=-0.0 size=N/A time=00:22:44.61 bitrate=N/A speed=37.2x    frame=33138 fps=891 q=-0.0 size=N/A time=00:23:02.13 bitrate=N/A speed=37.2x    frame=33554 fps=890 q=-0.0 size=N/A time=00:23:19.48 bitrate=N/A speed=37.1x    frame=33952 fps=889 q=-0.0 size=N/A time=00:23:36.08 bitrate=N/A speed=37.1x    frame=34309 fps=886 q=-0.0 size=N/A time=00:23:50.97 bitrate=N/A speed=  37x    frame=34839 fps=888 q=-0.0 size=N/A time=00:24:13.07 bitrate=N/A speed=  37x    [Parsed_psnr_10 @ 0000027a6b083880] PSNR y:47.338250 u:50.166965 v:50.218276 average:48.098410 min:37.464541 max:58.175738
[out#0/null @ 0000027a6afb2640] video:15145KiB audio:275664KiB subtitle:0KiB other streams:0KiB global headers:0KiB muxing overhead: unknown
frame=35247 fps=891 q=-0.0 Lsize=N/A time=00:24:30.09 bitrate=N/A speed=37.1x    
